<svg width="18" height="14" viewBox="0 0 18 14" fill="none" xmlns="http://www.w3.org/2000/svg">
<path fill-rule="evenodd" clip-rule="evenodd" d="M0.790899 0.768845C1.29724 0.276562 1.98399 0 2.70007 0H15.2999C16.016 0 16.7028 0.276562 17.2091 0.768845C17.7154 1.26113 17.9999 1.92881 17.9999 2.625V3.48642C18 3.49494 18 3.50346 17.9999 3.51197V11.375C17.9999 12.0712 17.7154 12.7389 17.2091 13.2312C16.7028 13.7234 16.016 14 15.2999 14H2.70007C1.98399 14 1.29724 13.7234 0.790899 13.2312C0.284556 12.7389 9.56734e-05 12.0712 9.56734e-05 11.375V3.51196C-3.17838e-05 3.50346 -3.19984e-05 3.49494 9.56734e-05 3.48643V2.625C9.56734e-05 1.92881 0.284556 1.26113 0.790899 0.768845ZM1.80008 5.13495V11.375C1.80008 11.6071 1.8949 11.8296 2.06368 11.9937C2.23246 12.1578 2.46138 12.25 2.70007 12.25H15.2999C15.5386 12.25 15.7675 12.1578 15.9363 11.9937C16.1051 11.8296 16.1999 11.6071 16.1999 11.375V5.13495L10.4985 8.83037C10.4984 8.83043 10.4983 8.83049 10.4982 8.83054C10.0546 9.11823 9.53327 9.27176 9 9.27176C8.46674 9.27176 7.94542 9.11823 7.50179 8.83054C7.5017 8.83049 7.50161 8.83043 7.50152 8.83037L1.80008 5.13495ZM16.1999 3.03171L9.49976 7.37446L9.49949 7.37463C9.3516 7.47057 9.17779 7.52176 9 7.52176C8.82221 7.52176 8.6484 7.47057 8.50051 7.37463L8.50024 7.37446L1.80008 3.03171V2.625C1.80008 2.39294 1.8949 2.17038 2.06368 2.00628C2.23246 1.84219 2.46137 1.75 2.70007 1.75H15.2999C15.5386 1.75 15.7675 1.84219 15.9363 2.00628C16.1051 2.17038 16.1999 2.39294 16.1999 2.625V3.03171Z" fill="white"/>
</svg>
