<svg width="8" height="5" viewBox="0 0 8 5" fill="none" xmlns="http://www.w3.org/2000/svg">
<path d="M6.69388 0.1699C6.85108 0.047208 7.04553 -0.0123576 7.24154 0.00213821C7.43755 0.016634 7.62195 0.104218 7.7609 0.248811C7.89985 0.393405 7.98402 0.585303 7.99795 0.789275C8.01188 0.993247 7.95463 1.1956 7.83673 1.35919L4.57143 4.75717C4.41883 4.91282 4.21368 5 4 5C3.78632 5 3.58117 4.91282 3.42857 4.75717L0.163265 1.35919C0.0453634 1.1956 -0.0118752 0.993246 0.0020542 0.789274C0.015984 0.585303 0.100148 0.393404 0.239096 0.248811C0.378044 0.104217 0.56245 0.0166335 0.758458 0.00213768C0.954466 -0.0123581 1.14892 0.0472076 1.30612 0.169899L4 2.96473L6.69388 0.161405L6.69388 0.1699Z" fill="white"/>
</svg>
