<svg width="245" height="110" viewBox="0 0 245 110" fill="none" xmlns="http://www.w3.org/2000/svg">
<path d="M0 5C0 2.23858 2.23858 0 5 0H240C242.761 0 245 2.23858 245 5V105C245 107.761 242.761 110 240 110H5C2.23857 110 0 107.761 0 105V5Z" fill="white"/>
<path d="M35 63V47.6H42.216C44.064 47.6 45.472 47.9666 46.44 48.7C47.408 49.4186 47.892 50.3866 47.892 51.604C47.892 52.4253 47.7013 53.1293 47.32 53.716C46.9387 54.288 46.4253 54.7353 45.78 55.058C45.1493 55.366 44.46 55.52 43.712 55.52L44.108 54.728C44.9733 54.728 45.7507 54.8893 46.44 55.212C47.1293 55.52 47.672 55.9746 48.068 56.576C48.4787 57.1773 48.684 57.9253 48.684 58.82C48.684 60.14 48.178 61.1666 47.166 61.9C46.154 62.6333 44.6507 63 42.656 63H35ZM37.86 60.756H42.48C43.5507 60.756 44.372 60.58 44.944 60.228C45.516 59.876 45.802 59.3113 45.802 58.534C45.802 57.7713 45.516 57.214 44.944 56.862C44.372 56.4953 43.5507 56.312 42.48 56.312H37.64V54.09H41.908C42.9053 54.09 43.668 53.914 44.196 53.562C44.7387 53.21 45.01 52.682 45.01 51.978C45.01 51.2593 44.7387 50.724 44.196 50.372C43.668 50.02 42.9053 49.844 41.908 49.844H37.86V60.756Z" fill="#0C2E8A"/>
<path d="M56.9943 63.154C55.689 63.154 54.545 62.8973 53.5623 62.384C52.5943 61.856 51.839 61.1373 51.2963 60.228C50.7683 59.3186 50.5043 58.2846 50.5043 57.126C50.5043 55.9526 50.761 54.9186 51.2743 54.024C51.8023 53.1146 52.521 52.4033 53.4303 51.89C54.3543 51.3766 55.403 51.12 56.5763 51.12C57.7203 51.12 58.7397 51.3693 59.6343 51.868C60.529 52.3666 61.233 53.0706 61.7463 53.98C62.2597 54.8893 62.5163 55.96 62.5163 57.192C62.5163 57.3093 62.509 57.4413 62.4943 57.588C62.4943 57.7346 62.487 57.874 62.4723 58.006H52.6823V56.18H61.0203L59.9423 56.752C59.957 56.0773 59.8177 55.4833 59.5243 54.97C59.231 54.4566 58.8277 54.0533 58.3143 53.76C57.8157 53.4666 57.2363 53.32 56.5763 53.32C55.9017 53.32 55.3077 53.4666 54.7943 53.76C54.2957 54.0533 53.8997 54.464 53.6063 54.992C53.3277 55.5053 53.1883 56.114 53.1883 56.818V57.258C53.1883 57.962 53.3497 58.5853 53.6723 59.128C53.995 59.6706 54.4497 60.0886 55.0363 60.382C55.623 60.6753 56.2977 60.822 57.0603 60.822C57.7203 60.822 58.3143 60.7193 58.8423 60.514C59.3703 60.3086 59.8397 59.986 60.2503 59.546L61.7243 61.24C61.1963 61.856 60.529 62.3326 59.7223 62.67C58.9303 62.9926 58.021 63.154 56.9943 63.154Z" fill="#0C2E8A"/>
<path d="M68.7879 63.154C67.8052 63.154 66.8592 63.0293 65.9499 62.78C65.0552 62.516 64.3439 62.2006 63.8159 61.834L64.8719 59.744C65.3999 60.0813 66.0305 60.36 66.7639 60.58C67.4972 60.8 68.2305 60.91 68.9639 60.91C69.8292 60.91 70.4525 60.7926 70.8339 60.558C71.2299 60.3233 71.4279 60.008 71.4279 59.612C71.4279 59.2893 71.2959 59.0473 71.0319 58.886C70.7679 58.71 70.4232 58.578 69.9979 58.49C69.5725 58.402 69.0959 58.3213 68.5679 58.248C68.0545 58.1746 67.5339 58.0793 67.0059 57.962C66.4925 57.83 66.0232 57.6466 65.5979 57.412C65.1725 57.1626 64.8279 56.8326 64.5639 56.422C64.2999 56.0113 64.1679 55.4686 64.1679 54.794C64.1679 54.046 64.3805 53.4006 64.8059 52.858C65.2312 52.3006 65.8252 51.8753 66.5879 51.582C67.3652 51.274 68.2819 51.12 69.3379 51.12C70.1299 51.12 70.9292 51.208 71.7359 51.384C72.5425 51.56 73.2099 51.8093 73.7379 52.132L72.6819 54.222C72.1245 53.8846 71.5599 53.6573 70.9879 53.54C70.4305 53.408 69.8732 53.342 69.3159 53.342C68.4799 53.342 67.8565 53.4666 67.4459 53.716C67.0499 53.9653 66.8519 54.2806 66.8519 54.662C66.8519 55.014 66.9839 55.278 67.2479 55.454C67.5119 55.63 67.8565 55.7693 68.2819 55.872C68.7072 55.9746 69.1765 56.0626 69.6899 56.136C70.2179 56.1946 70.7385 56.29 71.2519 56.422C71.7652 56.554 72.2345 56.7373 72.6599 56.972C73.0999 57.192 73.4519 57.5073 73.7159 57.918C73.9799 58.3286 74.1119 58.864 74.1119 59.524C74.1119 60.2573 73.8919 60.8953 73.4519 61.438C73.0265 61.9806 72.4179 62.406 71.6259 62.714C70.8339 63.0073 69.8879 63.154 68.7879 63.154Z" fill="#0C2E8A"/>
<path d="M80.9021 63.154C79.6115 63.154 78.6141 62.824 77.9101 62.164C77.2061 61.4893 76.8541 60.4993 76.8541 59.194V48.656H79.6041V59.128C79.6041 59.6853 79.7435 60.118 80.0221 60.426C80.3155 60.734 80.7188 60.888 81.2321 60.888C81.8481 60.888 82.3615 60.7266 82.7721 60.404L83.5421 62.362C83.2195 62.626 82.8235 62.824 82.3541 62.956C81.8848 63.088 81.4008 63.154 80.9021 63.154ZM74.9181 53.54V51.34H82.7501V53.54H74.9181Z" fill="#0C2E8A"/>
<path d="M84.9955 58.028V55.74H91.0455V58.028H84.9955Z" fill="#0C2E8A"/>
<path d="M100.258 63.154C98.9527 63.154 97.8087 62.8973 96.826 62.384C95.858 61.856 95.1027 61.1373 94.56 60.228C94.032 59.3187 93.768 58.2847 93.768 57.126C93.768 55.9527 94.0247 54.9187 94.538 54.024C95.066 53.1147 95.7847 52.4033 96.694 51.89C97.618 51.3767 98.6667 51.12 99.84 51.12C100.984 51.12 102.003 51.3693 102.898 51.868C103.793 52.3667 104.497 53.0707 105.01 53.98C105.523 54.8893 105.78 55.96 105.78 57.192C105.78 57.3093 105.773 57.4413 105.758 57.588C105.758 57.7347 105.751 57.874 105.736 58.006H95.946V56.18H104.284L103.206 56.752C103.221 56.0773 103.081 55.4833 102.788 54.97C102.495 54.4567 102.091 54.0533 101.578 53.76C101.079 53.4667 100.5 53.32 99.84 53.32C99.1653 53.32 98.5713 53.4667 98.058 53.76C97.5593 54.0533 97.1633 54.464 96.87 54.992C96.5913 55.5053 96.452 56.114 96.452 56.818V57.258C96.452 57.962 96.6133 58.5853 96.936 59.128C97.2587 59.6707 97.7133 60.0887 98.3 60.382C98.8867 60.6753 99.5613 60.822 100.324 60.822C100.984 60.822 101.578 60.7193 102.106 60.514C102.634 60.3087 103.103 59.986 103.514 59.546L104.988 61.24C104.46 61.856 103.793 62.3327 102.986 62.67C102.194 62.9927 101.285 63.154 100.258 63.154Z" fill="#50D8AF"/>
<path d="M108.422 63V51.252H111.04V54.486L110.732 53.54C111.084 52.748 111.634 52.1467 112.382 51.736C113.144 51.3253 114.09 51.12 115.22 51.12V53.738C115.102 53.7087 114.992 53.694 114.89 53.694C114.787 53.6793 114.684 53.672 114.582 53.672C113.54 53.672 112.712 53.98 112.096 54.596C111.48 55.1973 111.172 56.0993 111.172 57.302V63H108.422Z" fill="#50D8AF"/>
<path d="M122.967 63.154C121.662 63.154 120.518 62.8973 119.535 62.384C118.567 61.856 117.812 61.1373 117.269 60.228C116.741 59.3187 116.477 58.2847 116.477 57.126C116.477 55.9527 116.734 54.9187 117.247 54.024C117.775 53.1147 118.494 52.4033 119.403 51.89C120.327 51.3767 121.376 51.12 122.549 51.12C123.693 51.12 124.712 51.3693 125.607 51.868C126.502 52.3667 127.206 53.0707 127.719 53.98C128.232 54.8893 128.489 55.96 128.489 57.192C128.489 57.3093 128.482 57.4413 128.467 57.588C128.467 57.7347 128.46 57.874 128.445 58.006H118.655V56.18H126.993L125.915 56.752C125.93 56.0773 125.79 55.4833 125.497 54.97C125.204 54.4567 124.8 54.0533 124.287 53.76C123.788 53.4667 123.209 53.32 122.549 53.32C121.874 53.32 121.28 53.4667 120.767 53.76C120.268 54.0533 119.872 54.464 119.579 54.992C119.3 55.5053 119.161 56.114 119.161 56.818V57.258C119.161 57.962 119.322 58.5853 119.645 59.128C119.968 59.6707 120.422 60.0887 121.009 60.382C121.596 60.6753 122.27 60.822 123.033 60.822C123.693 60.822 124.287 60.7193 124.815 60.514C125.343 60.3087 125.812 59.986 126.223 59.546L127.697 61.24C127.169 61.856 126.502 62.3327 125.695 62.67C124.903 62.9927 123.994 63.154 122.967 63.154Z" fill="#50D8AF"/>
<path d="M136.521 63.154C135.289 63.154 134.189 62.8973 133.221 62.384C132.267 61.856 131.519 61.1373 130.977 60.228C130.434 59.3187 130.163 58.2847 130.163 57.126C130.163 55.9527 130.434 54.9187 130.977 54.024C131.519 53.1147 132.267 52.4033 133.221 51.89C134.189 51.3767 135.289 51.12 136.521 51.12C137.665 51.12 138.669 51.3547 139.535 51.824C140.415 52.2787 141.082 52.9533 141.537 53.848L139.425 55.08C139.073 54.5227 138.64 54.112 138.127 53.848C137.628 53.584 137.085 53.452 136.499 53.452C135.824 53.452 135.215 53.5987 134.673 53.892C134.13 54.1853 133.705 54.6107 133.397 55.168C133.089 55.7107 132.935 56.3633 132.935 57.126C132.935 57.8887 133.089 58.5487 133.397 59.106C133.705 59.6487 134.13 60.0667 134.673 60.36C135.215 60.6533 135.824 60.8 136.499 60.8C137.085 60.8 137.628 60.668 138.127 60.404C138.64 60.14 139.073 59.7293 139.425 59.172L141.537 60.404C141.082 61.284 140.415 61.966 139.535 62.45C138.669 62.9193 137.665 63.154 136.521 63.154Z" fill="#50D8AF"/>
<path d="M149.264 63.154C147.959 63.154 146.815 62.8973 145.832 62.384C144.864 61.856 144.109 61.1373 143.566 60.228C143.038 59.3187 142.774 58.2847 142.774 57.126C142.774 55.9527 143.031 54.9187 143.544 54.024C144.072 53.1147 144.791 52.4033 145.7 51.89C146.624 51.3767 147.673 51.12 148.846 51.12C149.99 51.12 151.009 51.3693 151.904 51.868C152.799 52.3667 153.503 53.0707 154.016 53.98C154.529 54.8893 154.786 55.96 154.786 57.192C154.786 57.3093 154.779 57.4413 154.764 57.588C154.764 57.7347 154.757 57.874 154.742 58.006H144.952V56.18H153.29L152.212 56.752C152.227 56.0773 152.087 55.4833 151.794 54.97C151.501 54.4567 151.097 54.0533 150.584 53.76C150.085 53.4667 149.506 53.32 148.846 53.32C148.171 53.32 147.577 53.4667 147.064 53.76C146.565 54.0533 146.169 54.464 145.876 54.992C145.597 55.5053 145.458 56.114 145.458 56.818V57.258C145.458 57.962 145.619 58.5853 145.942 59.128C146.265 59.6707 146.719 60.0887 147.306 60.382C147.893 60.6753 148.567 60.822 149.33 60.822C149.99 60.822 150.584 60.7193 151.112 60.514C151.64 60.3087 152.109 59.986 152.52 59.546L153.994 61.24C153.466 61.856 152.799 62.3327 151.992 62.67C151.2 62.9927 150.291 63.154 149.264 63.154Z" fill="#50D8AF"/>
<path d="M163.939 63.154C162.986 63.154 162.113 62.934 161.321 62.494C160.544 62.054 159.921 61.394 159.451 60.514C158.997 59.6193 158.769 58.49 158.769 57.126C158.769 55.7473 158.989 54.618 159.429 53.738C159.884 52.858 160.5 52.2053 161.277 51.78C162.055 51.34 162.942 51.12 163.939 51.12C165.098 51.12 166.117 51.3693 166.997 51.868C167.892 52.3667 168.596 53.0633 169.109 53.958C169.637 54.8527 169.901 55.9087 169.901 57.126C169.901 58.3433 169.637 59.4067 169.109 60.316C168.596 61.2107 167.892 61.9073 166.997 62.406C166.117 62.9047 165.098 63.154 163.939 63.154ZM157.427 67.268V51.252H160.045V54.024L159.957 57.148L160.177 60.272V67.268H157.427ZM163.631 60.8C164.291 60.8 164.878 60.6533 165.391 60.36C165.919 60.0667 166.337 59.6413 166.645 59.084C166.953 58.5267 167.107 57.874 167.107 57.126C167.107 56.3633 166.953 55.7107 166.645 55.168C166.337 54.6107 165.919 54.1853 165.391 53.892C164.878 53.5987 164.291 53.452 163.631 53.452C162.971 53.452 162.377 53.5987 161.849 53.892C161.321 54.1853 160.903 54.6107 160.595 55.168C160.287 55.7107 160.133 56.3633 160.133 57.126C160.133 57.874 160.287 58.5267 160.595 59.084C160.903 59.6413 161.321 60.0667 161.849 60.36C162.377 60.6533 162.971 60.8 163.631 60.8Z" fill="#50D8AF"/>
<path d="M176.931 63.154C175.641 63.154 174.643 62.824 173.939 62.164C173.235 61.4893 172.883 60.4993 172.883 59.194V48.656H175.633V59.128C175.633 59.6853 175.773 60.118 176.051 60.426C176.345 60.734 176.748 60.888 177.261 60.888C177.877 60.888 178.391 60.7267 178.801 60.404L179.571 62.362C179.249 62.626 178.853 62.824 178.383 62.956C177.914 63.088 177.43 63.154 176.931 63.154ZM170.947 53.54V51.34H178.779V53.54H170.947Z" fill="#50D8AF"/>
<path d="M182.929 63.154C182.43 63.154 182.005 62.9853 181.653 62.648C181.301 62.296 181.125 61.856 181.125 61.328C181.125 60.7707 181.301 60.3307 181.653 60.008C182.005 59.6707 182.43 59.502 182.929 59.502C183.427 59.502 183.853 59.6707 184.205 60.008C184.557 60.3307 184.733 60.7707 184.733 61.328C184.733 61.856 184.557 62.296 184.205 62.648C183.853 62.9853 183.427 63.154 182.929 63.154Z" fill="#50D8AF"/>
<path d="M192.616 63.154C191.384 63.154 190.284 62.8973 189.316 62.384C188.363 61.856 187.615 61.1373 187.072 60.228C186.53 59.3187 186.258 58.2847 186.258 57.126C186.258 55.9527 186.53 54.9187 187.072 54.024C187.615 53.1147 188.363 52.4033 189.316 51.89C190.284 51.3767 191.384 51.12 192.616 51.12C193.76 51.12 194.765 51.3547 195.63 51.824C196.51 52.2787 197.178 52.9533 197.632 53.848L195.52 55.08C195.168 54.5227 194.736 54.112 194.222 53.848C193.724 53.584 193.181 53.452 192.594 53.452C191.92 53.452 191.311 53.5987 190.768 53.892C190.226 54.1853 189.8 54.6107 189.492 55.168C189.184 55.7107 189.03 56.3633 189.03 57.126C189.03 57.8887 189.184 58.5487 189.492 59.106C189.8 59.6487 190.226 60.0667 190.768 60.36C191.311 60.6533 191.92 60.8 192.594 60.8C193.181 60.8 193.724 60.668 194.222 60.404C194.736 60.14 195.168 59.7293 195.52 59.172L197.632 60.404C197.178 61.284 196.51 61.966 195.63 62.45C194.765 62.9193 193.76 63.154 192.616 63.154Z" fill="#50D8AF"/>
<path d="M198.934 63V61.262L206.172 52.506L206.678 53.452H199.066V51.252H208.878V52.99L201.64 61.746L201.09 60.8H209.076V63H198.934Z" fill="#50D8AF"/>
</svg>
