<svg width="54" height="22" viewBox="0 0 54 22" fill="none" xmlns="http://www.w3.org/2000/svg">
<path d="M11.9695 17.4437C11.3111 20.3967 9.20961 22 6.08399 22C2.27886 21.9898 0 19.5341 0 15.5055C0 11.4161 2.56098 8.57471 6.19888 8.57471C9.83677 8.57471 12.168 11.2538 12.168 15.414C12.168 15.5764 12.168 15.881 12.1367 16.2664H4.92346C5.00708 17.6463 5.35329 18.2247 6.09572 18.2247C6.35152 18.2173 6.5972 18.126 6.79274 17.9657C6.98828 17.8054 7.12218 17.5856 7.17263 17.3421L11.9695 17.4437ZM7.27579 13.7094C7.22342 12.6853 6.79477 12.086 6.13636 12.086C5.42558 12.086 5.02819 12.6644 4.9641 13.7094H7.27579Z" fill="white"/>
<path d="M20.9698 21.7161V8.82861H25.8933V21.7161H20.9698Z" fill="white"/>
<path d="M34.9259 21.7164V14.8964C34.9259 13.7092 34.7274 13.3234 34.1315 13.3234C33.4207 13.3234 33.0765 13.9322 33.0765 15.2314V21.7164H28.1519V8.82822H33.0753C33.0441 9.54891 33.0441 9.76171 33.023 10.2389L32.9706 11.2843C33.765 9.46774 34.9568 8.55322 36.4725 8.55322C37.0199 8.55893 37.5569 8.69865 38.0338 8.95943C38.5107 9.22021 38.9121 9.59361 39.2007 10.0451C39.6607 10.7657 39.8592 11.6181 39.8592 12.9168V21.7164H34.9259Z" fill="white"/>
<path d="M53.2301 17.4437C52.5717 20.3966 50.4702 22 47.3446 22C43.5395 22 41.2606 19.5443 41.2606 15.5138C41.2606 11.4244 43.8216 8.58301 47.4595 8.58301C51.0974 8.58301 53.4286 11.2621 53.4286 15.4224C53.4286 15.5847 53.4286 15.8893 53.3974 16.2747H46.1739C46.2575 17.6546 46.6037 18.233 47.3462 18.233C47.602 18.2256 47.8477 18.1343 48.0432 17.974C48.2387 17.8137 48.3726 17.5939 48.4231 17.3504L53.2301 17.4437ZM48.5469 13.7094C48.4946 12.6852 48.0659 12.0859 47.4075 12.0859C46.6967 12.0859 46.2994 12.6644 46.2353 13.7094H48.5469Z" fill="white"/>
<path d="M26.772 3.94696C26.772 5.15469 25.2871 6.14886 23.4998 6.14886C21.6914 6.14886 20.2277 5.13421 20.2277 3.92648C20.2277 2.69865 21.6809 1.7041 23.4998 1.7041C25.3188 1.7041 26.772 2.69031 26.772 3.94658V3.94696Z" fill="white"/>
<path d="M34.8733 1.87721C34.8733 2.89186 33.6292 3.72407 32.1345 3.72407C30.6188 3.72407 29.3958 2.882 29.3958 1.86545C29.3958 0.832207 30.6188 0 32.1345 0C33.6503 0 34.8733 0.832207 34.8733 1.87721Z" fill="white"/>
<path d="M42.2124 3.16553C42.2124 3.92642 41.2715 4.54546 40.1531 4.54546C39.0137 4.54546 38.0939 3.90632 38.0939 3.14504C38.0939 2.37391 39.0137 1.74463 40.1531 1.74463C41.2926 1.75487 42.2124 2.37391 42.2124 3.16515V3.16553Z" fill="white"/>
<path d="M47.491 5.85698C47.491 6.3846 46.8326 6.82118 46.0589 6.82118C45.2645 6.82118 44.6268 6.37474 44.6268 5.84712C44.6268 5.30925 45.2645 4.87305 46.0589 4.87305C46.8533 4.87305 47.491 5.30925 47.491 5.85925V5.85698Z" fill="white"/>
<path d="M13.7779 1.59326V5.22592C15.5863 5.22592 17.05 6.22047 17.05 7.4684C17.05 8.67612 15.5652 9.67029 13.7779 9.67029V21.7161H18.7014V1.59326H13.7779Z" fill="white"/>
</svg>
